<?xml version="1.0" encoding="UTF-8"?>
<svg id="Layer_1" data-name="Layer 1" xmlns="http://www.w3.org/2000/svg" viewBox="0 0 127.61 127.6">
  <defs>
    <style>
      .cls-1 {
        fill: #006aaa;
        stroke-width: 0px;
      }
    </style>
  </defs>
  <path class="cls-1" d="m74.25,99.65c-5.9,1-9.9,6.6-9,12.5s6.6,9.9,12.5,9,9.9-6.6,9-12.5c-1-6-6.5-10-12.5-9Zm25.4-46.3c1,5.9,6.6,9.9,12.5,9,5.9-1,9.9-6.6,9-12.5s-6.6-9.9-12.5-9c-6,1-10,6.6-9,12.5Zm-10-16.5c3.8,4.6,10.7,5.3,15.3,1.5,4.6-3.8,5.3-10.7,1.5-15.3-3.8-4.6-10.7-5.3-15.3-1.5-4.7,3.8-5.3,10.6-1.5,15.3Zm-17-9.3c5.6,2.1,11.9-.7,14-6.3s-.7-11.9-6.3-14c-5.6-2.1-11.9.7-14,6.3-2.1,5.6.7,11.9,6.3,14Zm-19.3.4c5.9-1,9.9-6.6,9-12.5s-6.6-9.9-12.5-9-9.9,6.6-9,12.5c1,6,6.6,10,12.5,9Zm-16.5,10.1c4.6-3.8,5.3-10.7,1.5-15.3-3.8-4.7-10.7-5.4-15.3-1.6s-5.3,10.7-1.5,15.3,10.6,5.4,15.3,1.6Zm-9.3,16.9c2.1-5.6-.7-11.9-6.3-14s-11.9.7-14,6.3.7,11.9,6.3,14c5.6,2.2,11.9-.7,14-6.3Zm.4,19.3c-1-5.9-6.6-9.9-12.5-9s-9.9,6.6-9,12.5c1,5.9,6.6,9.9,12.5,9,6-.9,10-6.5,9-12.5Zm10.1,16.5c-3.8-4.6-10.7-5.3-15.3-1.5s-5.3,10.7-1.5,15.3c3.8,4.6,10.7,5.3,15.3,1.5s5.3-10.6,1.5-15.3Zm16.9,9.3c-5.6-2.1-11.9.7-14,6.3-2.1,5.6.7,11.9,6.3,14s11.9-.7,14-6.3c2.2-5.6-.7-11.8-6.3-14Zm54,8.8c-9.1,9.2-21.1,15.7-34.8,17.9C39.35,132.45,6.55,108.85.85,74.15-4.85,39.35,18.75,6.55,53.45.85c34.8-5.7,67.6,17.9,73.3,52.6,2.7,16.3-1.1,32.2-9.5,45.1l-2.2-1.6c-.9-.6-2-.7-2.9-.3-1.2.5-2.4.9-3.8,1.2-6.2,1-12.1-2-15-7.2-.5-1-1.7-1.4-2.8-1-1.2.5-1.8,1.9-1.3,3.1,3.5,8.4,11,14.4,19.7,16.1h0Zm-34.4-46.8c-1-5.9-6.6-9.9-12.5-9-5.9,1-9.9,6.6-9,12.5,1,5.9,6.6,9.9,12.5,9s10-6.6,9-12.5Z"/>
</svg>