<?xml version="1.0" encoding="utf-8"?>
<!-- Generator: Adobe Illustrator 27.8.1, SVG Export Plug-In . SVG Version: 6.00 Build 0)  -->
<svg version="1.1" id="Layer_1" xmlns="http://www.w3.org/2000/svg" xmlns:xlink="http://www.w3.org/1999/xlink" x="0px" y="0px"
	 viewBox="0 0 306.6 152.9" style="enable-background:new 0 0 306.6 152.9;" xml:space="preserve">
<g>
	<g>
		<path d="M266.7,145h-79.8L147,75.9l39.9-69.1h79.8l39.9,69.1L266.7,145z M200,60.3c-8.6,14.8-3.5,33.8,11.3,42.3
			c14.8,8.6,33.8,3.5,42.3-11.3c8.6-14.8,3.5-33.8-11.3-42.3C227.5,40.4,208.5,45.5,200,60.3 M42.8,52.9l15,8.6L45.6,82.7l-15-8.6
			L0,127l44.9,25.9l24.4-42.3l53.7,31c11.7,6.8,26.6,2.7,33.4-8.9c6.7-11.7,2.7-26.6-8.9-33.4l-53.7-31L118.2,26L73.3,0L42.8,52.9z"
			/>
	</g>
	<g>
		<path d="M280,6.5c1.8,0,3.3,1.5,3.3,3.3s-1.5,3.3-3.3,3.3s-3.3-1.5-3.3-3.3C276.7,8,278.1,6.5,280,6.5z M280,12.8c1.7,0,3-1.3,3-3
			s-1.3-3-3-3s-3,1.3-3,3S278.3,12.8,280,12.8z M281.1,11.6c-0.1-0.1-0.1-0.3-0.1-0.7c0-0.7-0.4-0.9-1.2-0.9H279v1.6h-0.3V8h1.3
			c0.8,0,1.4,0.2,1.4,1c0,0.4-0.3,0.7-0.7,0.9c0.5,0.2,0.6,0.5,0.6,1.2c0,0.2,0.1,0.4,0.1,0.5C281.4,11.6,281.1,11.6,281.1,11.6z
			 M280.2,8.3h-1.1v1.5h0.9c0.8,0,1.1-0.3,1.1-0.7C281.1,8.5,280.8,8.3,280.2,8.3z"/>
	</g>
</g>
</svg>
